<mxfile host="app.diagrams.net" modified="2021-11-08T23:55:38.140Z" agent="5.0 (Windows NT 10.0; Win64; x64) AppleWebKit/537.36 (KHTML, like Gecko) Chrome/95.0.4638.69 Safari/537.36" etag="nBFovk05hkj9drKPufWK" version="15.7.0" type="github">
  <diagram id="6a731a19-8d31-9384-78a2-239565b7b9f0" name="Page-1">
    <mxGraphModel dx="6024" dy="2010" grid="1" gridSize="10" guides="1" tooltips="1" connect="1" arrows="1" fold="1" page="1" pageScale="1" pageWidth="1169" pageHeight="827" background="none" math="0" shadow="0">
      <root>
        <mxCell id="0" />
        <mxCell id="1" parent="0" />
        <mxCell id="2" value="start" style="shape=mxgraph.flowchart.terminator;strokeWidth=2;gradientColor=none;gradientDirection=north;fontStyle=0;html=1;" parent="1" vertex="1">
          <mxGeometry x="291.25" y="10" width="120" height="30" as="geometry" />
        </mxCell>
        <mxCell id="3" value="&quot;Welcome friend,&amp;nbsp;&lt;br&gt;please enter you name: &quot;" style="shape=mxgraph.flowchart.data;strokeWidth=2;gradientColor=none;gradientDirection=north;fontStyle=0;html=1;" parent="1" vertex="1">
          <mxGeometry x="242" y="60" width="218.5" height="80" as="geometry" />
        </mxCell>
        <mxCell id="7" style="fontStyle=1;strokeColor=#003366;strokeWidth=1;html=1;" parent="1" source="2" target="3" edge="1">
          <mxGeometry relative="1" as="geometry" />
        </mxCell>
        <mxCell id="8" style="fontStyle=1;strokeColor=#003366;strokeWidth=1;html=1;startArrow=none;" parent="1" edge="1">
          <mxGeometry relative="1" as="geometry">
            <mxPoint x="354" y="470" as="targetPoint" />
            <mxPoint x="354.15692307692325" y="350" as="sourcePoint" />
          </mxGeometry>
        </mxCell>
        <mxCell id="38" value="create&#xa;final&#xa;report" style="shape=mxgraph.flowchart.data;strokeWidth=2;gradientColor=none;gradientDirection=north;fontStyle=0;html=1;" parent="1" vertex="1">
          <mxGeometry x="255.5" y="2250" width="159" height="80" as="geometry" />
        </mxCell>
        <mxCell id="39" value="issue&#xa;bill of works" style="shape=mxgraph.flowchart.predefined_process;strokeWidth=2;gradientColor=none;gradientDirection=north;fontStyle=0;html=1;" parent="1" vertex="1">
          <mxGeometry x="710" y="2240" width="190" height="90" as="geometry" />
        </mxCell>
        <mxCell id="40" value="end" style="shape=mxgraph.flowchart.terminator;strokeWidth=2;gradientColor=none;gradientDirection=north;fontStyle=0;html=1;" parent="1" vertex="1">
          <mxGeometry x="275" y="2380" width="120" height="30" as="geometry" />
        </mxCell>
        <mxCell id="43" value="" style="edgeStyle=elbowEdgeStyle;elbow=vertical;exitX=0.5;exitY=1;exitPerimeter=0;entryX=0.5;entryY=0;entryPerimeter=0;fontStyle=1;strokeColor=#003366;strokeWidth=1;html=1;" parent="1" source="38" target="40" edge="1">
          <mxGeometry width="100" height="100" as="geometry">
            <mxPoint y="100" as="sourcePoint" />
            <mxPoint x="100" as="targetPoint" />
          </mxGeometry>
        </mxCell>
        <mxCell id="44" value="" style="edgeStyle=elbowEdgeStyle;elbow=vertical;exitX=0.905;exitY=0.5;exitPerimeter=0;entryX=0;entryY=0.5;entryPerimeter=0;fontStyle=1;strokeColor=#003366;strokeWidth=1;html=1;" parent="1" source="38" target="39" edge="1">
          <mxGeometry width="100" height="100" as="geometry">
            <mxPoint y="100" as="sourcePoint" />
            <mxPoint x="100" as="targetPoint" />
          </mxGeometry>
        </mxCell>
        <mxCell id="tX9lwq8T6TDkgisUMIIO-55" value="Hi &lt;b&gt;USER_NAME, &lt;/b&gt;WELCOME :) !&amp;nbsp; &quot;&lt;br&gt;With my intellectual techie magic, &lt;br&gt;we will be able to convert duration into units like it&#39;s magic!&amp;nbsp;&lt;br&gt;&lt;br&gt;Here is how this works:&amp;nbsp; You, my friend, will need to select a duration&lt;br&gt;(Day or Month) alongside your preferred unit of either Hour, &lt;br&gt;Minutes or Seconds and then leave the rest to me! &lt;br&gt;Like your fairy Godmother, I will convert&amp;nbsp;whatever you have chosen and &lt;br&gt;magically give you back the correct conversion.&amp;nbsp; &amp;nbsp;;).&amp;nbsp;" style="shape=mxgraph.flowchart.data;strokeWidth=2;gradientColor=none;gradientDirection=north;fontStyle=0;html=1;" parent="1" vertex="1">
          <mxGeometry x="21.880000000000003" y="200" width="658.75" height="150" as="geometry" />
        </mxCell>
        <mxCell id="tX9lwq8T6TDkgisUMIIO-56" value="" style="fontStyle=1;strokeColor=#003366;strokeWidth=1;html=1;endArrow=none;" parent="1" source="3" target="tX9lwq8T6TDkgisUMIIO-55" edge="1">
          <mxGeometry relative="1" as="geometry">
            <mxPoint x="345.29761904761904" y="140.00000000000006" as="sourcePoint" />
            <mxPoint x="325.95238095238096" y="270" as="targetPoint" />
          </mxGeometry>
        </mxCell>
        <mxCell id="tX9lwq8T6TDkgisUMIIO-67" value="Lets begin. Are you ready?&amp;nbsp;" style="rhombus;whiteSpace=wrap;html=1;" parent="1" vertex="1">
          <mxGeometry x="248.75" y="470" width="205" height="80" as="geometry" />
        </mxCell>
        <mxCell id="tX9lwq8T6TDkgisUMIIO-72" value="" style="endArrow=classic;html=1;rounded=0;exitX=0;exitY=0.5;exitDx=0;exitDy=0;entryX=0.5;entryY=0;entryDx=0;entryDy=0;" parent="1" source="tX9lwq8T6TDkgisUMIIO-67" edge="1" target="tX9lwq8T6TDkgisUMIIO-80">
          <mxGeometry relative="1" as="geometry">
            <mxPoint x="140" y="510" as="sourcePoint" />
            <mxPoint x="351" y="650" as="targetPoint" />
            <Array as="points">
              <mxPoint x="160" y="510" />
              <mxPoint x="160" y="600" />
            </Array>
          </mxGeometry>
        </mxCell>
        <mxCell id="tX9lwq8T6TDkgisUMIIO-73" value="Yes" style="edgeLabel;resizable=0;html=1;align=center;verticalAlign=middle;" parent="tX9lwq8T6TDkgisUMIIO-72" connectable="0" vertex="1">
          <mxGeometry relative="1" as="geometry">
            <mxPoint x="29" y="-90" as="offset" />
          </mxGeometry>
        </mxCell>
        <mxCell id="tX9lwq8T6TDkgisUMIIO-74" value="" style="endArrow=classic;html=1;rounded=0;entryX=1;entryY=0.5;entryDx=0;entryDy=0;entryPerimeter=0;exitX=1;exitY=0.5;exitDx=0;exitDy=0;" parent="1" source="tX9lwq8T6TDkgisUMIIO-67" target="2" edge="1">
          <mxGeometry relative="1" as="geometry">
            <mxPoint x="460.5" y="509.17" as="sourcePoint" />
            <mxPoint x="830" y="70" as="targetPoint" />
            <Array as="points">
              <mxPoint x="840" y="509" />
              <mxPoint x="840" y="30" />
            </Array>
          </mxGeometry>
        </mxCell>
        <mxCell id="tX9lwq8T6TDkgisUMIIO-75" value="No" style="edgeLabel;resizable=0;html=1;align=center;verticalAlign=middle;" parent="tX9lwq8T6TDkgisUMIIO-74" connectable="0" vertex="1">
          <mxGeometry relative="1" as="geometry" />
        </mxCell>
        <mxCell id="aH9sYp4Mii5SqpsydzsK-59" value="" style="edgeStyle=orthogonalEdgeStyle;rounded=0;orthogonalLoop=1;jettySize=auto;html=1;fontSize=9;entryX=0.5;entryY=0;entryDx=0;entryDy=0;" edge="1" parent="1" source="tX9lwq8T6TDkgisUMIIO-80" target="aH9sYp4Mii5SqpsydzsK-58">
          <mxGeometry relative="1" as="geometry">
            <Array as="points">
              <mxPoint x="160" y="980" />
            </Array>
          </mxGeometry>
        </mxCell>
        <mxCell id="aH9sYp4Mii5SqpsydzsK-86" value="" style="edgeStyle=orthogonalEdgeStyle;rounded=0;orthogonalLoop=1;jettySize=auto;html=1;fontSize=9;exitX=0;exitY=0.5;exitDx=0;exitDy=0;" edge="1" parent="1" source="tX9lwq8T6TDkgisUMIIO-80" target="aH9sYp4Mii5SqpsydzsK-85">
          <mxGeometry relative="1" as="geometry">
            <Array as="points">
              <mxPoint x="-335" y="700" />
            </Array>
          </mxGeometry>
        </mxCell>
        <mxCell id="aH9sYp4Mii5SqpsydzsK-119" value="" style="edgeStyle=orthogonalEdgeStyle;rounded=0;orthogonalLoop=1;jettySize=auto;html=1;fontSize=9;" edge="1" parent="1" source="tX9lwq8T6TDkgisUMIIO-80" target="aH9sYp4Mii5SqpsydzsK-118">
          <mxGeometry relative="1" as="geometry" />
        </mxCell>
        <mxCell id="tX9lwq8T6TDkgisUMIIO-80" value="&lt;span style=&quot;font-size: 10px&quot;&gt;Would you like to convert months or days?&lt;/span&gt;&lt;br style=&quot;font-size: 10px&quot;&gt;&lt;span style=&quot;font-size: 10px&quot;&gt;Enter months or days&lt;/span&gt;" style="rhombus;whiteSpace=wrap;html=1;" parent="1" vertex="1">
          <mxGeometry x="50.00000000000001" y="615" width="219.38" height="170" as="geometry" />
        </mxCell>
        <mxCell id="tX9lwq8T6TDkgisUMIIO-83" value="No" style="edgeLabel;resizable=0;html=1;align=center;verticalAlign=middle;" parent="1" connectable="0" vertex="1">
          <mxGeometry x="850" y="255.16670474308103" as="geometry">
            <mxPoint x="-216" y="250" as="offset" />
          </mxGeometry>
        </mxCell>
        <mxCell id="tX9lwq8T6TDkgisUMIIO-102" value="" style="edgeStyle=orthogonalEdgeStyle;rounded=0;orthogonalLoop=1;jettySize=auto;html=1;" parent="1" edge="1">
          <mxGeometry relative="1" as="geometry">
            <mxPoint x="320.0000000000002" y="1570" as="targetPoint" />
          </mxGeometry>
        </mxCell>
        <mxCell id="aH9sYp4Mii5SqpsydzsK-68" value="" style="edgeStyle=orthogonalEdgeStyle;rounded=0;orthogonalLoop=1;jettySize=auto;html=1;fontSize=9;" edge="1" parent="1" source="aH9sYp4Mii5SqpsydzsK-58" target="aH9sYp4Mii5SqpsydzsK-67">
          <mxGeometry relative="1" as="geometry" />
        </mxCell>
        <mxCell id="aH9sYp4Mii5SqpsydzsK-113" value="" style="edgeStyle=orthogonalEdgeStyle;rounded=0;orthogonalLoop=1;jettySize=auto;html=1;fontSize=9;" edge="1" parent="1" source="aH9sYp4Mii5SqpsydzsK-58" target="aH9sYp4Mii5SqpsydzsK-112">
          <mxGeometry relative="1" as="geometry" />
        </mxCell>
        <mxCell id="aH9sYp4Mii5SqpsydzsK-115" value="" style="edgeStyle=orthogonalEdgeStyle;rounded=0;orthogonalLoop=1;jettySize=auto;html=1;fontSize=9;" edge="1" parent="1" source="aH9sYp4Mii5SqpsydzsK-58" target="aH9sYp4Mii5SqpsydzsK-114">
          <mxGeometry relative="1" as="geometry" />
        </mxCell>
        <mxCell id="aH9sYp4Mii5SqpsydzsK-58" value="&lt;div style=&quot;font-size: 9px&quot;&gt;You have selected Days!&amp;nbsp;&lt;/div&gt;&lt;div style=&quot;font-size: 9px&quot;&gt;What unit would you like to be converted&lt;/div&gt;&lt;div style=&quot;font-size: 9px&quot;&gt;hours,&amp;nbsp;minutes&amp;nbsp;seconds?&lt;/div&gt;" style="rhombus;whiteSpace=wrap;html=1;" vertex="1" parent="1">
          <mxGeometry x="79.69" y="980" width="160" height="133" as="geometry" />
        </mxCell>
        <mxCell id="aH9sYp4Mii5SqpsydzsK-60" value="Days" style="edgeLabel;resizable=0;html=1;align=center;verticalAlign=middle;" connectable="0" vertex="1" parent="1">
          <mxGeometry x="159.69" y="859.9952941176474" as="geometry">
            <mxPoint x="-5" y="27" as="offset" />
          </mxGeometry>
        </mxCell>
        <mxCell id="aH9sYp4Mii5SqpsydzsK-67" value="Conversion=&amp;nbsp;&lt;br&gt;&lt;span&gt;number_of_days * durartion_type[2]&lt;/span&gt;" style="whiteSpace=wrap;html=1;" vertex="1" parent="1">
          <mxGeometry x="291.26" y="1147.5" width="120" height="50" as="geometry" />
        </mxCell>
        <mxCell id="aH9sYp4Mii5SqpsydzsK-88" value="" style="edgeStyle=orthogonalEdgeStyle;rounded=0;orthogonalLoop=1;jettySize=auto;html=1;fontSize=9;" edge="1" parent="1" source="aH9sYp4Mii5SqpsydzsK-85" target="aH9sYp4Mii5SqpsydzsK-87">
          <mxGeometry relative="1" as="geometry" />
        </mxCell>
        <mxCell id="aH9sYp4Mii5SqpsydzsK-90" value="" style="edgeStyle=orthogonalEdgeStyle;rounded=0;orthogonalLoop=1;jettySize=auto;html=1;fontSize=9;" edge="1" parent="1" source="aH9sYp4Mii5SqpsydzsK-85" target="aH9sYp4Mii5SqpsydzsK-89">
          <mxGeometry relative="1" as="geometry" />
        </mxCell>
        <mxCell id="aH9sYp4Mii5SqpsydzsK-93" value="" style="edgeStyle=orthogonalEdgeStyle;rounded=0;orthogonalLoop=1;jettySize=auto;html=1;fontSize=9;" edge="1" parent="1" source="aH9sYp4Mii5SqpsydzsK-85" target="aH9sYp4Mii5SqpsydzsK-92">
          <mxGeometry relative="1" as="geometry">
            <Array as="points">
              <mxPoint x="-345" y="1030" />
              <mxPoint x="-345" y="1030" />
            </Array>
          </mxGeometry>
        </mxCell>
        <mxCell id="aH9sYp4Mii5SqpsydzsK-85" value="&lt;div style=&quot;font-size: 9px&quot;&gt;You have selected Months!&amp;nbsp;&lt;/div&gt;&lt;div style=&quot;font-size: 9px&quot;&gt;What unit would you like to be converted&lt;/div&gt;&lt;div style=&quot;font-size: 9px&quot;&gt;hours,&amp;nbsp;minutes&amp;nbsp;seconds?&lt;/div&gt;" style="rhombus;whiteSpace=wrap;html=1;" vertex="1" parent="1">
          <mxGeometry x="-420" y="800" width="170" height="120" as="geometry" />
        </mxCell>
        <mxCell id="aH9sYp4Mii5SqpsydzsK-87" value="Conversion=&amp;nbsp;&amp;nbsp;&lt;br&gt;&lt;span&gt;number_of_months * durartion_type[2]&lt;/span&gt;" style="whiteSpace=wrap;html=1;" vertex="1" parent="1">
          <mxGeometry x="-220" y="960" width="120" height="60" as="geometry" />
        </mxCell>
        <mxCell id="aH9sYp4Mii5SqpsydzsK-89" value="number_of_months * durartion_type[0]" style="whiteSpace=wrap;html=1;" vertex="1" parent="1">
          <mxGeometry x="-660" y="986.5" width="200" height="60" as="geometry" />
        </mxCell>
        <mxCell id="aH9sYp4Mii5SqpsydzsK-92" value="&lt;span&gt;Conversion= number_of_months * durartion_type[1]&lt;/span&gt;" style="whiteSpace=wrap;html=1;" vertex="1" parent="1">
          <mxGeometry x="-410" y="1060" width="120" height="60" as="geometry" />
        </mxCell>
        <mxCell id="aH9sYp4Mii5SqpsydzsK-97" value="Months" style="edgeLabel;resizable=0;html=1;align=center;verticalAlign=middle;" connectable="0" vertex="1" parent="1">
          <mxGeometry x="-190" y="699.9952941176474" as="geometry">
            <mxPoint x="-5" y="27" as="offset" />
          </mxGeometry>
        </mxCell>
        <mxCell id="aH9sYp4Mii5SqpsydzsK-98" value="Second&lt;br&gt;" style="edgeLabel;resizable=0;html=1;align=center;verticalAlign=middle;" connectable="0" vertex="1" parent="1">
          <mxGeometry x="-550" y="889.9952941176474" as="geometry">
            <mxPoint x="-5" y="27" as="offset" />
          </mxGeometry>
        </mxCell>
        <mxCell id="aH9sYp4Mii5SqpsydzsK-101" value="&lt;span style=&quot;font-family: &amp;#34;helvetica&amp;#34;&quot;&gt;Minute&amp;nbsp;&lt;/span&gt;" style="edgeLabel;resizable=0;html=1;align=center;verticalAlign=middle;" connectable="0" vertex="1" parent="1">
          <mxGeometry x="-345" y="909.9952941176474" as="geometry">
            <mxPoint x="-5" y="27" as="offset" />
          </mxGeometry>
        </mxCell>
        <mxCell id="aH9sYp4Mii5SqpsydzsK-102" value="&lt;span style=&quot;font-family: &amp;#34;helvetica&amp;#34;&quot;&gt;Hour&lt;/span&gt;" style="edgeLabel;resizable=0;html=1;align=center;verticalAlign=middle;" connectable="0" vertex="1" parent="1">
          <mxGeometry x="-180" y="869.9952941176474" as="geometry">
            <mxPoint x="-5" y="27" as="offset" />
          </mxGeometry>
        </mxCell>
        <mxCell id="aH9sYp4Mii5SqpsydzsK-103" value="Second&lt;br&gt;" style="edgeLabel;resizable=0;html=1;align=center;verticalAlign=middle;" connectable="0" vertex="1" parent="1">
          <mxGeometry y="1049.9952941176475" as="geometry">
            <mxPoint x="-5" y="27" as="offset" />
          </mxGeometry>
        </mxCell>
        <mxCell id="aH9sYp4Mii5SqpsydzsK-106" value="&lt;span style=&quot;font-family: &amp;#34;helvetica&amp;#34;&quot;&gt;Minute&amp;nbsp;&lt;/span&gt;" style="edgeLabel;resizable=0;html=1;align=center;verticalAlign=middle;" connectable="0" vertex="1" parent="1">
          <mxGeometry x="170" y="1139.9952941176475" as="geometry">
            <mxPoint x="-5" y="27" as="offset" />
          </mxGeometry>
        </mxCell>
        <mxCell id="aH9sYp4Mii5SqpsydzsK-109" value="&lt;span style=&quot;font-family: &amp;#34;helvetica&amp;#34;&quot;&gt;Hour&lt;/span&gt;" style="edgeLabel;resizable=0;html=1;align=center;verticalAlign=middle;" connectable="0" vertex="1" parent="1">
          <mxGeometry x="351.26" y="1079.9952941176475" as="geometry">
            <mxPoint x="-5" y="27" as="offset" />
          </mxGeometry>
        </mxCell>
        <mxCell id="aH9sYp4Mii5SqpsydzsK-112" value="&lt;span&gt;Conversion=&amp;nbsp;&lt;/span&gt;&lt;br&gt;&lt;span&gt;number_of_days * durartion_type[0]&lt;/span&gt;" style="whiteSpace=wrap;html=1;" vertex="1" parent="1">
          <mxGeometry x="-60" y="1120" width="120" height="60" as="geometry" />
        </mxCell>
        <mxCell id="aH9sYp4Mii5SqpsydzsK-114" value="&lt;span&gt;Conversion=&amp;nbsp;&lt;/span&gt;&lt;br&gt;&lt;span&gt;number_of_days * durartion_type[1]&lt;/span&gt;" style="whiteSpace=wrap;html=1;" vertex="1" parent="1">
          <mxGeometry x="99.69" y="1197.5" width="120" height="60" as="geometry" />
        </mxCell>
        <mxCell id="aH9sYp4Mii5SqpsydzsK-118" value="Your input is not months or days.&lt;br&gt;&amp;nbsp;To Proceed, please use a number! &lt;br&gt;Do not ruin my program friend" style="shape=parallelogram;perimeter=parallelogramPerimeter;whiteSpace=wrap;html=1;fixedSize=1;" vertex="1" parent="1">
          <mxGeometry x="399.07" y="640" width="220.93" height="120" as="geometry" />
        </mxCell>
      </root>
    </mxGraphModel>
  </diagram>
</mxfile>
